# xmcd
#
# Track frame offsets:
#	150
#	13240
#	24937
#	31762
#	50722
#	62822
#
# Disc length: 1047 seconds
#
# Revision: 0
# Processed by: cddbd v1.4PL0 Copyright (c) Steve Scherf et al.
# Submitted via: dBpowerAMP V4.0
#
DISCID=46041506
DTITLE=Unknown Hinson - Rock'N'Roll is Straight From Hell
DYEAR=1900
DGENRE=Country
TTITLE0=Silver Platter (Recorded Live)
TTITLE1=Don't Bite the Lips That Kiss You
TTITLE2=It Don't Bother Me
TTITLE3=Lingerie (Recorded Live)
TTITLE4=Love on Command
TTITLE5=Rock'N'Roll is Straight From Hell
EXTD=
EXTT0=
EXTT1=
EXTT2=
EXTT3=
EXTT4=
EXTT5=
PLAYORDER=
